<?xml version="1.0" encoding="utf-8"?>
<!-- Generator: Adobe Illustrator 16.0.0, SVG Export Plug-In . SVG Version: 6.00 Build 0)  -->
<!DOCTYPE svg PUBLIC "-//W3C//DTD SVG 1.1//EN" "http://www.w3.org/Graphics/SVG/1.1/DTD/svg11.dtd">
<svg version="1.1" id="Layer_1" xmlns="http://www.w3.org/2000/svg" xmlns:xlink="http://www.w3.org/1999/xlink" x="0px" y="0px"
	 width="1984.25px" height="1133.86px" viewBox="0 0 1984.25 1133.86" enable-background="new 0 0 1984.25 1133.86"
	 xml:space="preserve">
<rect y="0" fill="#878787" width="1984.25" height="1133.861"/>
<g>
	<path fill="#FFFFFF" d="M618.357,434.484v-74.273l116.515-225.245h106.177v227.414h33.436v72.104h-33.436v76.826h-94.054v-76.826
		H618.357z M691.993,362.891h58.698V239.996L691.993,362.891z"/>
	<path fill="#FFFFFF" d="M899.498,322.564c0-64.83,5.743-109.58,17.229-134.253c17.781-38.369,54.365-57.556,109.751-57.556
		c48.153,0,82.142,12.209,101.966,36.626c17.439,21.95,26.162,57.683,26.162,107.198c0,58.875-0.683,95.458-2.042,109.751
		c-4.256,42.795-15.23,74.656-32.926,95.585c-20.59,24.078-51.643,36.116-93.16,36.116c-55.727,0-92.481-19.525-110.261-58.576
		C905.069,432.698,899.498,387.735,899.498,322.564z M997.253,322.054l1.531,83.717c0.339,15.314,1.573,26.12,3.701,32.415
		c3.828,11.146,12.038,16.718,24.63,16.718c12.166,0,20.164-5.571,23.992-16.718c2.126-6.295,3.36-17.101,3.701-32.415l1.021-52.833
		V293.34l-1.021-51.813c-0.341-18.46-2.086-30.628-5.232-36.499c-4.595-8.762-12.806-13.145-24.63-13.145
		c-16.677,0-25.396,16.548-26.162,49.643L997.253,322.054z"/>
	<path fill="#FFFFFF" d="M1176.045,434.484v-74.273l116.514-225.245h106.178v227.414h33.436v72.104h-33.436v76.826h-94.054v-76.826
		H1176.045z M1249.68,362.891h58.698V239.996L1249.68,362.891z"/>
</g>
<g>
	<path fill="#FFFFFF" d="M442.922,617.564v-25.229h75.22v25.229h-21.72v89.765h-30.493v-89.765H442.922z"/>
	<path fill="#FFFFFF" d="M522.159,707.329V592.335h28.739v36.889l1.911-2.534c4.263-5.667,10.646-8.501,19.146-8.501
		c8.111,0,13.817,2.236,17.119,6.707c2.963,3.848,4.445,9.918,4.445,18.21v64.224h-28.739v-58.296c0-6.083-2.027-9.125-6.083-9.125
		c-4.679,0-7.227,2.612-7.643,7.838l-0.156,1.755v57.828H522.159z"/>
	<path fill="#FFFFFF" d="M674.041,656.997v11.494h-42.153v9.413l0.156,4.492c0.208,6.067,2.755,9.101,7.643,9.101
		c4.575,0,7.083-3.612,7.526-10.84l0.156-2.729v-0.78h26.672c0,21.291-11.498,31.937-34.491,31.937
		c-14.472,0-24.526-4.367-30.165-13.103c-4.365-6.811-6.547-17.937-6.547-33.379c0-10.424,1.544-19.314,4.634-26.672
		c4.153-9.904,10.644-15.389,19.471-16.455c6.16-0.728,10.995-1.092,14.504-1.092c21.079,0,31.892,10.793,32.438,32.379
		L674.041,656.997z M631.693,652.854h15.832v-2.535c0-8.423-1.495-13.063-4.484-13.921c-1.17-0.312-2.34-0.468-3.509-0.468
		c-5.226,0-7.838,4.849-7.838,14.545V652.854z"/>
	<path fill="#FFFFFF" d="M729.646,707.329V592.335h28.739v36.889c4.133-7.461,10.892-11.191,20.277-11.191
		c10.866,0,18.158,6.655,21.876,19.965c1.923,6.941,2.885,17.912,2.885,32.911c0,10.555-1.872,19.186-5.615,25.893
		c-4.68,8.501-11.867,12.751-21.563,12.751c-8.292,0-14.089-2.977-17.391-8.93l-1.599-2.886v9.593H729.646z M757.878,663.733v2.223
		l0.351,7.994c0.104,3.302,0.364,5.693,0.78,7.175c1.17,4.367,3.678,6.551,7.525,6.551c5.095,0,7.643-6.603,7.643-19.809v-5.576
		l-0.312-9.437c-0.104-4.134-0.585-7.059-1.443-8.773c-1.274-2.782-3.666-4.173-7.174-4.173c-3.406,0-5.537,2.938-6.395,8.813
		c-0.208,1.69-0.468,5.576-0.78,11.659L757.878,663.733z"/>
	<path fill="#FFFFFF" d="M881.841,656.997v11.494h-42.153v9.413l0.156,4.492c0.208,6.067,2.755,9.101,7.643,9.101
		c4.575,0,7.083-3.612,7.526-10.84l0.156-2.729v-0.78h26.672c0,21.291-11.498,31.937-34.491,31.937
		c-14.472,0-24.526-4.367-30.165-13.103c-4.365-6.811-6.547-17.937-6.547-33.379c0-10.424,1.544-19.314,4.634-26.672
		c4.153-9.904,10.644-15.389,19.471-16.455c6.16-0.728,10.995-1.092,14.504-1.092c21.079,0,31.892,10.793,32.438,32.379
		L881.841,656.997z M839.493,652.854h15.832v-2.535c0-8.423-1.495-13.063-4.484-13.921c-1.17-0.312-2.34-0.468-3.509-0.468
		c-5.226,0-7.838,4.849-7.838,14.545V652.854z"/>
	<path fill="#FFFFFF" d="M887.105,680.15h26.048v2.537c0,6.404,2.599,9.605,7.799,9.605c0.754-0.104,1.287-0.155,1.599-0.155
		c2.574-0.313,4.341-1.003,5.303-2.07c0.832-1.064,1.248-2.884,1.248-5.457c0-2.235-0.949-4.249-2.847-6.042l-1.287-0.974
		l-1.599-0.624l-18.21-6.705c-6.292-2.338-10.71-5.379-13.258-9.121c-2.651-3.716-3.977-8.927-3.977-15.631
		c0-17.879,10.268-26.818,30.805-26.818h7.838c6.499,0.832,10.333,1.417,11.503,1.755c10.217,2.756,15.637,9.996,16.261,21.72
		l0.194,2.69v1.287h-25.112v-2.535c0-5.017-2.34-7.525-7.019-7.525c-0.728,0.104-1.313,0.156-1.755,0.156
		c-4.03,0-6.044,1.871-6.044,5.615c0,0.312,0,0.623,0,0.936c0,2.782,1.377,4.757,4.133,5.927l1.131,0.468l0.936,0.313l20.628,7.37
		c9.67,3.405,14.506,10.425,14.506,21.057c0,10.555-2.978,18.496-8.93,23.825c-5.953,5.303-14.259,7.955-24.917,7.955
		c-12.556,0-21.07-1.328-25.541-3.983c-6.292-3.722-9.437-11.505-9.437-23.349V680.15z"/>
	<path fill="#FFFFFF" d="M956.592,640.571v-19.497h10.567v-25.073h28.739v25.073h11.191v19.497h-11.191V682.1
		c0,4.367,1.962,6.552,5.888,6.552h5.304v18.521c-5.018,0.754-8.852,1.131-11.504,1.131h-4.64c-0.442,0-1.833,0.052-4.173,0.156
		c-0.728,0-1.417,0-2.066,0c-5.642,0-9.788-1.17-12.439-3.51c-2.989-2.677-4.64-7.37-4.952-14.076l-0.156-3.978v-46.325H956.592z"/>
	<path fill="#FFFFFF" d="M1056.145,683.854V661.16l35.602-68.825h32.443v69.488h10.217v22.031h-10.217v23.475h-28.738v-23.475
		H1056.145z M1078.645,661.979h17.936v-37.551L1078.645,661.979z"/>
	<path fill="#FFFFFF" d="M1142.049,649.657c0-19.81,1.755-33.483,5.264-41.022c5.434-11.724,16.611-17.586,33.535-17.586
		c14.714,0,25.099,3.73,31.156,11.191c5.329,6.707,7.994,17.625,7.994,32.755c0,17.989-0.209,29.167-0.624,33.535
		c-1.301,13.076-4.654,22.812-10.061,29.206c-6.292,7.357-15.78,11.035-28.466,11.035c-17.027,0-28.258-5.966-33.69-17.897
		C1143.751,683.309,1142.049,669.57,1142.049,649.657z M1171.918,649.501l0.468,25.58c0.104,4.679,0.481,7.98,1.131,9.904
		c1.17,3.406,3.679,5.108,7.526,5.108c3.717,0,6.161-1.702,7.331-5.108c0.649-1.924,1.026-5.226,1.131-9.904l0.312-16.144v-18.21
		l-0.312-15.832c-0.104-5.641-0.638-9.358-1.6-11.152c-1.403-2.677-3.912-4.017-7.525-4.017c-5.096,0-7.76,5.057-7.994,15.169
		L1171.918,649.501z"/>
	<path fill="#FFFFFF" d="M1226.549,683.854V661.16l35.602-68.825h32.443v69.488h10.217v22.031h-10.217v23.475h-28.738v-23.475
		H1226.549z M1249.049,661.979h17.936v-37.551L1249.049,661.979z"/>
	<path fill="#FFFFFF" d="M1361.04,736.067V621.074h27.609v8.149c2.131-4.056,4.691-6.876,7.682-8.462
		c2.442-1.273,6.159-2.131,11.15-2.573c1.3-0.104,2.365-0.156,3.198-0.156c10.45,0,17.481,6.772,21.096,20.316
		c2.027,7.539,3.041,18.393,3.041,32.56c0,18.094-4.9,29.857-14.7,35.29c-3.822,2.131-7.813,3.197-11.972,3.197
		c-9.28,0-15.402-3.886-18.366-11.659v38.331H1361.04z M1389.272,663.733v2.223l0.351,7.994c0.104,3.302,0.363,5.693,0.78,7.175
		c1.169,4.367,3.678,6.551,7.524,6.551c5.096,0,7.644-6.603,7.644-19.809v-5.576l-0.313-9.437c-0.104-4.134-0.585-7.059-1.442-8.773
		c-1.274-2.782-3.666-4.173-7.175-4.173c-3.405,0-5.537,2.938-6.395,8.813c-0.209,1.69-0.468,5.576-0.78,11.659L1389.272,663.733z"
		/>
	<path fill="#FFFFFF" d="M1469.326,647.435h-26.36v-2.067c0-4.575,0.637-8.253,1.911-11.035c1.169-2.755,3.457-5.576,6.862-8.462
		c4.783-4.055,11.23-6.446,19.341-7.175c12.972,0,22.279,1.326,27.92,3.978c8.215,3.848,12.322,11.464,12.322,22.851l0.156,53.344
		c0,2.444,0.637,5.265,1.911,8.462h-27.141l-0.312-1.287l-0.352-0.936l-0.312-1.287l-0.156-2.066l-0.312-2.418l-0.156-1.442
		c-2.236,4.472-5.226,7.564-8.969,9.28c-2.859,1.273-7.11,1.911-12.751,1.911c-14.817,0-22.227-8.787-22.227-26.36
		c0-6.603,1.234-11.867,3.704-15.792c2.34-3.848,6.486-6.785,12.439-8.813l4.173-1.403l3.158-0.819l8.149-1.91l4.952-1.443
		c4.81-1.377,7.214-4.146,7.214-8.306c0-5.745-2.665-8.617-7.993-8.617c-3.952,0-6.239,2.665-6.863,7.993l-0.312,2.847V647.435z
		 M1484.494,665.021l-1.599,0.936l-1.755,0.663l-0.662,0.313l-2.067,0.779l-3.041,1.131l-1.599,0.78
		c-3.718,2.47-5.576,5.407-5.576,8.813c0,7.539,2.612,11.309,7.838,11.309c5.641,0,8.461-4.939,8.461-14.818V665.021z"/>
	<path fill="#FFFFFF" d="M1565.759,632.266v-11.191h27.646v85.124c0,7.772-1.754,14.271-5.262,19.497
		c-3.846,5.745-9.484,9.099-16.915,10.061c-5.769,0.754-10.029,1.131-12.783,1.131h-6.08c-6.6,0-12.239-1.014-16.916-3.042
		c-6.287-2.651-9.899-6.745-10.835-12.283c-0.649-3.743-0.974-6.096-0.974-7.058c0.104-0.832,0.156-1.469,0.156-1.91h25.856v0.975
		c0.416,3.613,2.6,5.68,6.552,6.2c0.624,0.13,1.209,0.194,1.755,0.194c5.198,0,7.799-3.626,7.799-10.879v-15.637l-1.247,2.379
		c-3.532,6.499-9.922,9.748-19.169,9.748c-16.493,0-24.739-14.271-24.739-42.815c0-8.942,1.064-17.144,3.193-24.605
		c3.089-10.84,8.034-16.793,14.836-17.859c4.677-0.754,7.873-1.131,9.588-1.131c7.327,0,12.692,3.406,16.096,10.217
		L1565.759,632.266z M1549.653,663.578l0.156,5.264c0.104,3.51,0.313,6.058,0.624,7.643c1.065,5.226,3.574,7.838,7.526,7.838
		c4.133,0,6.732-3.249,7.799-9.748c0.337-1.897,0.507-5.355,0.507-10.373c0-6.395-0.065-10.177-0.195-11.347
		c-0.729-8.189-3.432-12.283-8.11-12.283c-3.848,0-6.356,3.197-7.526,9.593c-0.521,3.405-0.78,7.175-0.78,11.308
		C1549.653,662.122,1549.653,662.824,1549.653,663.578z"/>
	<path fill="#FFFFFF" d="M1673.89,656.997v11.494h-42.153v9.413l0.156,4.492c0.208,6.067,2.756,9.101,7.643,9.101
		c4.575,0,7.084-3.612,7.526-10.84l0.156-2.729v-0.78h26.672c0,21.291-11.497,31.937-34.491,31.937
		c-14.472,0-24.526-4.367-30.165-13.103c-4.365-6.811-6.547-17.937-6.547-33.379c0-10.424,1.544-19.314,4.634-26.672
		c4.153-9.904,10.644-15.389,19.471-16.455c6.16-0.728,10.995-1.092,14.504-1.092c21.08,0,31.893,10.793,32.438,32.379
		L1673.89,656.997z M1631.542,652.854h15.831v-2.535c0-8.423-1.495-13.063-4.484-13.921c-1.169-0.312-2.339-0.468-3.509-0.468
		c-5.226,0-7.838,4.849-7.838,14.545V652.854z"/>
	<path fill="#FFFFFF" d="M1679.153,680.15h26.048v2.537c0,6.404,2.6,9.605,7.799,9.605c0.754-0.104,1.287-0.155,1.599-0.155
		c2.574-0.313,4.342-1.003,5.304-2.07c0.831-1.064,1.247-2.884,1.247-5.457c0-2.235-0.949-4.249-2.846-6.042l-1.287-0.974
		l-1.599-0.624l-18.211-6.705c-6.291-2.338-10.71-5.379-13.258-9.121c-2.651-3.716-3.978-8.927-3.978-15.631
		c0-17.879,10.269-26.818,30.806-26.818h7.838c6.499,0.832,10.333,1.417,11.503,1.755c10.217,2.756,15.637,9.996,16.261,21.72
		l0.195,2.69v1.287h-25.112v-2.535c0-5.017-2.34-7.525-7.02-7.525c-0.728,0.104-1.313,0.156-1.754,0.156
		c-4.03,0-6.045,1.871-6.045,5.615c0,0.312,0,0.623,0,0.936c0,2.782,1.378,4.757,4.134,5.927l1.131,0.468l0.936,0.313l20.628,7.37
		c9.671,3.405,14.506,10.425,14.506,21.057c0,10.555-2.977,18.496-8.93,23.825c-5.953,5.303-14.259,7.955-24.917,7.955
		c-12.556,0-21.07-1.328-25.541-3.983c-6.292-3.722-9.437-11.505-9.437-23.349V680.15z"/>
	<path fill="#FFFFFF" d="M540.836,855.865l0.156-6.551c0.312-14.168,2.82-24.072,7.526-29.713
		c5.329-6.499,14.856-9.749,28.583-9.749c13.622,0,23.202,3.25,28.739,9.749c5.017,5.979,7.526,15.884,7.526,29.713v12.946
		c0,13.935-2.561,23.891-7.682,29.869c-5.538,6.396-15.169,9.593-28.895,9.593c-13.752,0-23.228-3.249-28.427-9.748
		c-4.601-5.642-7.058-15.546-7.37-29.714L540.836,855.865z M569.263,860.506l0.156,7.019l0.156,3.51
		c0.104,2.678,0.326,4.654,0.665,5.928c1.068,4.575,3.31,6.862,6.725,6.862c3.726,0,6.02-2.82,6.88-8.462
		c0.104-0.753,0.208-2.196,0.313-4.328l0.469-10.528v-9.28l-0.469-10.528c-0.417-8.423-2.815-12.635-7.193-12.635
		c-4.483,0-6.947,4.212-7.389,12.635l-0.156,3.509l-0.156,7.02V860.506z"/>
	<path fill="#FFFFFF" d="M622.802,898.993v-86.255h27.61v8.617l1.911-2.534c3.613-4.913,9.37-7.733,17.272-8.462h3.822
		c7.668,0,13.206,2.34,16.611,7.02c2.755,3.925,4.133,9.892,4.133,17.897v63.717h-28.739v-58.296c0-6.083-2.027-9.125-6.083-9.125
		c-4.679,0-7.227,2.612-7.643,7.838l-0.156,1.755v57.828H622.802z"/>
	<path fill="#FFFFFF" d="M744.971,832.235v-19.497h10.567v-25.073h28.739v25.073h11.191v19.497h-11.191v41.528
		c0,4.367,1.962,6.552,5.888,6.552h5.303v18.521c-5.017,0.754-8.852,1.131-11.503,1.131h-4.641c-0.442,0-1.833,0.052-4.172,0.156
		c-0.728,0-1.417,0-2.066,0c-5.642,0-9.788-1.17-12.439-3.51c-2.99-2.677-4.64-7.37-4.952-14.076l-0.156-3.978v-46.325H744.971z"/>
	<path fill="#FFFFFF" d="M801.239,898.993V783.999h28.739v36.889l1.911-2.534c4.263-5.667,10.646-8.501,19.146-8.501
		c8.11,0,13.816,2.236,17.118,6.707c2.963,3.848,4.445,9.918,4.445,18.21v64.224H843.86v-58.296c0-6.083-2.027-9.125-6.083-9.125
		c-4.679,0-7.227,2.612-7.643,7.838l-0.156,1.755v57.828H801.239z"/>
	<path fill="#FFFFFF" d="M953.122,848.661v11.494h-42.153v9.413l0.156,4.492c0.208,6.067,2.755,9.101,7.643,9.101
		c4.575,0,7.083-3.612,7.526-10.84l0.156-2.729v-0.78h26.672c0,21.291-11.497,31.937-34.491,31.937
		c-14.472,0-24.526-4.367-30.165-13.103c-4.365-6.811-6.547-17.937-6.547-33.379c0-10.424,1.544-19.314,4.634-26.672
		c4.153-9.904,10.644-15.389,19.471-16.455c6.16-0.728,10.995-1.092,14.504-1.092c21.08,0,31.892,10.793,32.438,32.379
		L953.122,848.661z M910.774,844.519h15.832v-2.535c0-8.423-1.495-13.063-4.484-13.921c-1.17-0.312-2.34-0.468-3.509-0.468
		c-5.226,0-7.838,4.849-7.838,14.545V844.519z"/>
	<path fill="#FFFFFF" d="M1008.728,805.875v-21.876h28.738v21.876H1008.728z M1008.728,898.993v-86.255h28.738v86.255H1008.728z"/>
	<path fill="#FFFFFF" d="M1048.97,898.993v-86.255h27.609v8.617l1.911-2.534c3.612-4.913,9.37-7.733,17.272-8.462h3.821
		c7.668,0,13.205,2.34,16.611,7.02c2.755,3.925,4.134,9.892,4.134,17.897v63.717h-28.739v-58.296c0-6.083-2.027-9.125-6.083-9.125
		c-4.68,0-7.228,2.612-7.643,7.838l-0.156,1.755v57.828H1048.97z"/>
	<path fill="#FFFFFF" d="M1124.813,832.235v-19.497h10.567v-25.073h28.739v25.073h11.191v19.497h-11.191v41.528
		c0,4.367,1.962,6.552,5.888,6.552h5.304v18.521c-5.018,0.754-8.852,1.131-11.504,1.131h-4.64c-0.442,0-1.833,0.052-4.173,0.156
		c-0.728,0-1.417,0-2.066,0c-5.642,0-9.788-1.17-12.439-3.51c-2.989-2.677-4.64-7.37-4.952-14.076l-0.156-3.978v-46.325H1124.813z"
		/>
	<path fill="#FFFFFF" d="M1250.063,848.661v11.494h-42.153v9.413l0.156,4.492c0.208,6.067,2.756,9.101,7.643,9.101
		c4.575,0,7.084-3.612,7.526-10.84l0.156-2.729v-0.78h26.672c0,21.291-11.497,31.937-34.491,31.937
		c-14.472,0-24.526-4.367-30.165-13.103c-4.365-6.811-6.547-17.937-6.547-33.379c0-10.424,1.544-19.314,4.634-26.672
		c4.153-9.904,10.644-15.389,19.471-16.455c6.16-0.728,10.995-1.092,14.504-1.092c21.08,0,31.893,10.793,32.438,32.379
		L1250.063,848.661z M1207.715,844.519h15.831v-2.535c0-8.423-1.495-13.063-4.484-13.921c-1.169-0.312-2.339-0.468-3.509-0.468
		c-5.226,0-7.838,4.849-7.838,14.545V844.519z"/>
	<path fill="#FFFFFF" d="M1259.343,898.993v-86.255h27.609v11.815l1.287-2.223c4.574-8.085,10.904-12.128,18.988-12.128
		c0.338,0,0.662,0,0.975,0l3.978,0.156v27.296l-3.666-0.468c-6.604,0-11.347,0.793-14.232,2.379c-4.134,2.235-6.2,6.343-6.2,12.322
		v47.104H1259.343z"/>
	<path fill="#FFFFFF" d="M1316.196,898.993v-86.255h27.609v8.617l1.911-2.534c3.612-4.913,9.37-7.733,17.272-8.462h3.821
		c7.668,0,13.205,2.34,16.611,7.02c2.755,3.925,4.134,9.892,4.134,17.897v63.717h-28.739v-58.296c0-6.083-2.027-9.125-6.083-9.125
		c-4.68,0-7.228,2.612-7.643,7.838l-0.156,1.755v57.828H1316.196z"/>
	<path fill="#FFFFFF" d="M1468.078,848.661v11.494h-42.153v9.413l0.156,4.492c0.208,6.067,2.756,9.101,7.643,9.101
		c4.575,0,7.084-3.612,7.526-10.84l0.156-2.729v-0.78h26.672c0,21.291-11.497,31.937-34.491,31.937
		c-14.472,0-24.526-4.367-30.165-13.103c-4.365-6.811-6.547-17.937-6.547-33.379c0-10.424,1.544-19.314,4.634-26.672
		c4.153-9.904,10.644-15.389,19.471-16.455c6.16-0.728,10.995-1.092,14.504-1.092c21.08,0,31.893,10.793,32.438,32.379
		L1468.078,848.661z M1425.73,844.519h15.831v-2.535c0-8.423-1.495-13.063-4.484-13.921c-1.169-0.312-2.339-0.468-3.509-0.468
		c-5.226,0-7.838,4.849-7.838,14.545V844.519z"/>
	<path fill="#FFFFFF" d="M1470.301,832.235v-19.497h10.567v-25.073h28.739v25.073h11.191v19.497h-11.191v41.528
		c0,4.367,1.962,6.552,5.888,6.552h5.304v18.521c-5.018,0.754-8.852,1.131-11.504,1.131h-4.64c-0.442,0-1.833,0.052-4.173,0.156
		c-0.728,0-1.417,0-2.066,0c-5.642,0-9.788-1.17-12.439-3.51c-2.989-2.677-4.64-7.37-4.952-14.076l-0.156-3.978v-46.325H1470.301z"
		/>
</g>
<g>
</g>
<g>
</g>
<g>
</g>
<g>
</g>
<g>
</g>
<g>
</g>
</svg>
