<svg version="1.1" width="375" height="120" viewBox="-1 -1 375 120" xmlns="http://www.w3.org/2000/svg" xmlns:xlink="http://www.w3.org/1999/xlink">
  <!-- Exported by Scratch - http://scratch.mit.edu/ -->
  <path id="ID0.49214567663148046" fill="#FFFFFF" stroke="none" d="M 169.750 217.500 L 186.250 217.500 L 186.250 302 L 169.750 302 L 169.750 217.500 Z " transform="matrix(1, 0, 0, 1.0059171915054321, -64, -186.75)"/>
  <path id="ID0.5476530934683979" fill="#FFFFFF" stroke="none" stroke-linecap="round" d="M 266.500 239 L 283.250 239 L 283.250 301.250 L 266.500 301.250 L 266.500 239 Z " transform="matrix(0.9701492786407471, 0, 0, 1.0160642862319946, -56.15, -188.75)"/>
  <path id="ID0.9553119451738894" fill="none" stroke="#FFFFFF" stroke-width="3" stroke-linecap="round" d="M 336.450 253 C 338.283 252.968 340.232 254.054 341.200 255.550 C 342.599 257.642 342.964 260.351 342.950 262.850 C 342.938 265.056 342.435 267.472 341.200 269.350 C 340.258 270.675 338.537 271.841 336.900 271.750 C 335.053 271.648 333.150 270.411 332.100 268.850 C 330.874 267.033 330.637 264.610 330.600 262.400 C 330.563 260.157 330.772 257.736 331.950 255.800 C 332.887 254.338 334.686 253.032 336.450 253 Z " transform="matrix(4.311915874481201, 0, 0, 2.952065944671631, -1174.95, -688.65)"/>
  <path id="ID0.9553119451738894" fill="none" stroke="#FFFFFF" stroke-width="3" stroke-linecap="round" d="M 336.700 253.300 C 338.306 253.181 340.022 254.383 340.850 255.800 C 342.026 257.820 342.133 260.356 342.150 262.700 C 342.169 264.836 342.051 267.158 340.950 269 C 340.114 270.400 338.537 271.787 336.900 271.750 C 335.237 271.713 333.626 270.356 332.800 268.900 C 331.657 267.009 331.447 264.612 331.400 262.400 C 331.357 260.339 331.428 258.089 332.450 256.300 C 333.309 254.802 334.958 253.381 336.700 253.300 Z " transform="matrix(3.757814645767212, 0, 0, 2.572711706161499, -988.8, -589.65)"/>
  <path id="ID0.7094259848818183" fill="#FFFFFF" stroke="none" stroke-linecap="round" d="M 282 252.150 L 303 238.150 L 303 254.500 L 294.600 254.250 L 282 252.150 Z " transform="matrix(1, 0, 0, 1, -63.9, -185)"/>
  <path id="ID0.33629167219623923" fill="#FFFFFF" stroke="none" stroke-linecap="round" d="M 293.750 239.750 C 296.707 238.861 300.111 238.421 303.100 239.350 C 304.088 239.641 303.443 241.244 301.900 242.250 C 295.751 246.296 287.066 252.345 282.500 252.850 C 280.236 253.101 285.720 246.511 288 243.850 C 289.530 242.064 291.498 240.427 293.750 239.750 Z " transform="matrix(1, 0, 0, 1, -64.25, -186)"/>
  <path id="ID0.37391272559762" fill="#FFFFFF" stroke="none" stroke-linecap="round" d="M 295.850 248 C 298.354 248.372 301.982 251.573 301.350 253.250 C 300.657 254.998 295.822 253.918 293.200 254.850 C 290.926 255.660 288.758 256.871 286.850 258.350 C 285.406 259.469 284.086 260.853 283.350 262.500 C 282.326 264.708 283.033 267.648 281.600 269.650 C 281.007 270.490 278.409 270.893 278.500 269.300 C 278.781 262.894 278.526 255.420 282.600 250.500 C 285.464 247.042 291.498 247.353 295.850 248 Z " transform="matrix(1, 0, 0, 1, -64, -185)"/>
  <path id="ID0.20799710415303707" fill="#FFFFFF" stroke="none" stroke-linecap="round" d="M 379.750 282 L 397 282 L 397 289.250 L 387.650 291.600 L 379.750 282 Z " transform="matrix(0.9768785834312439, 0, 0, 1, -54.9, -185)"/>
  <path id="ID0.623401771299541" fill="#FFFFFF" stroke="none" stroke-linecap="round" d="M 382.300 282.750 C 384.355 283.401 386.603 283.718 388.532 284.726 C 394.861 288.030 399.746 294.653 406.750 295.700 C 412.027 296.489 417.666 293.331 421.650 289.800 C 426.799 285.211 427.402 275.800 432.900 272.450 C 435.256 271.015 436.909 277.153 437.300 280.100 C 437.774 283.951 437.140 288.160 435.350 291.700 C 433.564 295.229 430.545 298.545 426.950 300.100 C 420.307 302.701 412.922 303.901 405.850 303.700 C 399.993 303.534 394.155 301.542 388.950 298.800 C 385.931 297.154 384.076 293.797 382.050 291 C 381.306 289.972 381.056 288.655 380.800 287.400 C 380.449 285.679 379.788 283.782 380.300 282.150 C 380.505 281.497 381.613 282.543 382.300 282.750 Z " transform="matrix(1, 0, 0, 1, -64, -185)"/>
  <path id="ID0.5893699252046645" fill="#FFFFFF" stroke="none" stroke-linecap="round" d="M 410.650 291.300 C 413.148 291.221 415.908 291.076 418 289.700 C 419.797 288.517 420.369 286.102 421.300 284.200 C 422.207 282.392 422.117 277.492 423.500 278.600 C 427.160 281.533 435.920 289.892 431.500 292.300 C 420.844 298.106 405.667 298.507 393.400 295.200 C 389.278 294.025 394.641 285.667 396.400 282.700 C 397.049 281.606 397.115 285.929 398.150 287.100 C 399.483 288.525 401.326 289.481 403.150 290.100 C 405.545 290.913 408.104 291.381 410.650 291.300 Z " transform="matrix(1, 0, 0, 1, -64, -185)"/>
  <path id="ID0.6768015003763139" fill="#FFFFFF" stroke="none" stroke-linecap="round" d="M 429.800 269.150 C 432.653 271.177 437.293 274.716 435.700 277.850 C 432.917 283.377 425.884 286.016 420.200 288.150 C 418.669 288.725 422.416 284.388 421.200 283.250 C 417.984 280.240 413.298 279.495 409.200 278 C 402.313 275.488 394.462 275.366 388.400 271.350 C 384.886 269.021 382.821 264.259 382.300 260 C 381.901 256.745 382.478 250.523 385.800 250.650 C 392.391 250.902 396.707 258.075 402.700 260.650 C 407.141 262.619 412.226 262.732 416.800 264.150 C 421.230 265.523 425.978 266.447 429.800 269.150 Z " transform="matrix(1, 0, 0, 1, -64, -185)"/>
  <path id="ID0.7977214073762298" fill="#FFFFFF" stroke="none" stroke-linecap="round" d="M 415.650 245 L 432 247.650 L 435.150 258.250 L 419.650 258.250 L 415.650 245 Z " transform="matrix(1, 0, 0, 1, -64, -185)"/>
  <path id="ID0.196262467186898" fill="#FFFFFF" stroke="none" stroke-linecap="round" d="M 435.400 257.850 C 435.150 259.323 432.327 257.165 430.800 257.150 C 427.466 257.118 424.139 258.417 420.800 257.650 C 419.423 257.333 419.439 255.108 418.400 254.150 C 416.868 252.738 415.314 251.375 413.400 250.750 C 410.911 249.937 408.237 250.209 405.650 250.150 C 404.640 250.127 403.604 250.097 402.650 250.350 C 401.509 250.778 400.188 251.188 399.500 252.150 C 398.517 253.525 397.830 255.319 398 257 C 398.133 258.307 401.659 260.119 400.500 260.250 C 396.909 260.544 392.427 258.645 388.500 257.850 C 386.599 257.465 383.032 258.671 382.800 256.650 C 382.322 252.411 384.413 247.682 387.300 244.650 C 390.520 241.270 395.240 239.158 399.900 238.500 C 407.363 237.447 415.205 237.886 422.500 239.750 C 426.413 240.826 429.941 243.737 432.300 247 C 434.502 250.045 435.900 254.248 435.400 257.850 Z " transform="matrix(1, 0, 0, 1, -64, -185)"/>
  <path id="ID0.4926416613161564" fill="#FFFFFF" stroke="none" d="M 236.750 254 L 252.250 254 L 252.250 294 L 236.750 294 L 236.750 254 Z " transform="matrix(1, 0, 0, 1, -64, -185)"/>
  <path id="ID0.235309564974159" fill="#FFFFFF" stroke="none" stroke-linecap="round" d="M 238.750 292.900 L 256.100 299.900 L 256.100 302 L 238.400 302 L 238.750 292.900 Z " transform="matrix(1, 0, 0, 1, -64, -185)"/>
  <path id="ID0.9883383684791625" fill="#FFFFFF" stroke="none" stroke-linecap="round" d="M 245.600 291.750 C 247.473 291.604 249.524 290.100 251.250 290.900 C 252.509 291.484 251.977 293.588 252.400 294.900 C 252.727 295.871 252.944 296.900 253.500 297.750 C 254.099 298.666 256.445 299.704 255.800 300.100 C 254.570 300.779 251.737 299.689 249.750 299.900 C 246.102 300.288 242.568 301.844 238.900 301.800 C 237.983 301.788 238.150 300.496 237.900 299.800 C 237.580 298.821 237.392 297.807 237.200 296.800 C 237.020 295.851 236.725 294.909 236.750 293.950 C 236.791 293.236 236.699 292.071 237.400 291.900 C 240.042 291.241 242.877 291.963 245.600 291.750 Z " transform="matrix(1, 0, 0, 1, -64, -185)"/>
  <path id="ID0.3270895662717521" fill="#FFFFFF" stroke="none" stroke-linecap="round" d="M 204 247.400 L 215.250 255.500 L 215.250 259.500 L 199.750 259.500 L 204 247.400 Z " transform="matrix(1.0354838371276855, 0, 0, 1.0165289640426636, -71.25, -188.9)"/>
  <path id="ID0.39848217833787203" fill="#FFFFFF" stroke="none" stroke-linecap="round" d="M 204.100 246.250 C 206.554 243.274 209.873 240.711 213.550 239.550 C 218.975 237.838 224.880 237.618 230.550 237.900 C 234.918 238.117 239.191 239.579 243.300 241.050 C 244.327 241.418 243.091 241.706 242 242.100 C 237.776 243.675 233.147 244.330 229.081 246.316 C 224.838 248.388 220.739 251.072 217.250 254.300 C 216.042 255.418 216.197 257.401 215.550 258.900 C 215.388 259.275 216.033 259.549 214.850 259.600 C 210.261 259.787 205.650 259.511 201 259.500 C 199.837 259.497 200.099 259.833 199.800 259.550 C 199.539 259.251 199.815 258.723 199.850 258.300 C 199.924 257.413 199.898 256.498 200.200 255.650 C 201.336 252.457 201.952 248.855 204.100 246.250 Z " transform="matrix(1, 0, 0, 1, -64, -185)"/>
  <path id="ID0.4215217847377062" fill="#FFFFFF" stroke="none" stroke-linecap="round" d="M 241.700 240.950 C 244.752 240.926 247.344 243.721 249.350 246 C 250.939 247.806 251.608 250.307 252.050 252.700 C 252.314 254.127 252.708 256.489 251.350 257 C 247.086 258.604 242.211 259.082 237.800 258.150 C 236.007 257.758 236.311 254.654 234.950 253.500 C 233.393 252.179 231.368 251.303 229.350 251 C 226.679 250.599 223.939 250.955 221.250 251.400 C 220.324 251.553 218.454 253.370 218.750 252.700 C 219.607 250.760 221.113 247.309 223.500 246.100 C 229.119 243.255 235.480 240.996 241.700 240.950 Z " transform="matrix(1, 0, 0, 1, -64, -185)"/>
  <path id="ID0.652450367808342" fill="#FFFFFF" stroke="none" stroke-linecap="round" d="M 211.350 266.500 C 214.807 264.761 218.973 264.968 222.750 264.250 C 226.533 263.586 230.597 263.840 234.050 262.350 C 235.408 261.765 235.949 259.973 236.350 258.550 C 236.720 257.236 235.177 253.742 236.300 254.450 C 240.631 257.181 248.782 261.066 247.300 265.350 C 245.415 270.796 235.787 271.549 229.750 274 C 225.700 275.644 220.366 274.755 217 277.600 C 214.450 279.837 213.014 284.183 214.150 287.400 C 215.189 290.340 219.178 292.286 222.250 292.100 C 226.580 291.852 230.686 289.163 233.750 286.250 C 235.890 284.214 236.309 278.168 237.250 278.100 C 238.191 278.032 238.162 283.312 238.500 285.900 C 238.711 287.515 239.941 289.290 239.150 290.750 C 237.290 294.230 234.794 297.887 231.150 299.600 C 225.431 302.287 218.661 304.274 212.500 303.100 C 207.167 302.084 201.567 298.435 199.250 293.600 C 196.702 288.284 197.107 281.246 199.500 275.900 C 201.558 271.303 206.892 268.742 211.350 266.500 Z " transform="matrix(1, 0, 0, 1, -64, -185)"/>
  <g id="ID0.15893760370090604">
    <path id="ID0.3708915216848254" fill="#FFFFFF" stroke="none" stroke-linecap="round" d="M 132 103 L 185 103 L 256.350 288.400 L 232 340 L 210.250 288.600 L 132 103 Z " transform="matrix(0.49789032340049744, 0, 0, 0.49789032340049744, -65.7, -51.25)"/>
    <path id="ID0.15183637896552682" fill="#FFFFFF" stroke="none" stroke-linecap="round" d="M 285 104.250 L 335 104.250 L 264.500 270 L 243 217.500 L 285 104.250 Z " transform="matrix(0.49789032340049744, 0, 0, 0.49789032340049744, -65.7, -51.25)"/>
  </g>
</svg>